<?xml version="1.0" encoding="UTF-8" standalone="no"?>
<!DOCTYPE svg PUBLIC "-//W3C//DTD SVG 1.1//EN"
 "http://www.w3.org/Graphics/SVG/1.1/DTD/svg11.dtd">
<!-- Generated by graphviz version 2.43.0 (0)
 -->
<!-- Title: Fencing Cycle Pages: 1 -->
<svg width="604pt" height="48pt"
 viewBox="0.00 0.00 603.50 47.90" xmlns="http://www.w3.org/2000/svg" xmlns:xlink="http://www.w3.org/1999/xlink">
<g id="graph0" class="graph" transform="scale(1 1) rotate(0) translate(4 43.9)">
<title>Fencing Cycle</title>
<polygon fill="white" stroke="transparent" points="-4,4 -4,-43.9 599.5,-43.9 599.5,4 -4,4"/>
<!-- kernel -->
<g id="node1" class="node">
<title>kernel</title>
<polygon fill="lightgrey" stroke="black" points="158,-39.9 0,-39.9 0,-3.9 158,-3.9 158,-39.9"/>
<text text-anchor="middle" x="79" y="-18.2" font-family="Times,serif" font-size="14.00">Kernel DMA Fences</text>
</g>
<!-- userspace -->
<g id="node2" class="node">
<title>userspace</title>
<polygon fill="lightgrey" stroke="black" points="595.5,-39.9 380.5,-39.9 380.5,-3.9 595.5,-3.9 595.5,-39.9"/>
<text text-anchor="middle" x="488" y="-18.2" font-family="Times,serif" font-size="14.00">userspace controlled fences</text>
</g>
<!-- kernel&#45;&gt;userspace -->
<g id="edge1" class="edge">
<title>kernel&#45;&gt;userspace</title>
<path fill="none" stroke="black" d="M158.17,-7.54C169.08,-6.03 180.17,-4.74 190.75,-3.9 260.31,1.67 278.11,0.55 347.75,-3.9 355.07,-4.36 362.6,-4.97 370.18,-5.67"/>
<polygon fill="black" stroke="black" points="369.88,-9.16 380.17,-6.65 370.56,-2.19 369.88,-9.16"/>
<text text-anchor="middle" x="269.25" y="-7.7" font-family="Times,serif" font-size="14.00">memory management</text>
</g>
<!-- userspace&#45;&gt;kernel -->
<g id="edge2" class="edge">
<title>userspace&#45;&gt;kernel</title>
<path fill="none" stroke="black" d="M380.26,-21.9C314.29,-21.9 230.87,-21.9 168.55,-21.9"/>
<polygon fill="black" stroke="black" points="168.34,-18.4 158.34,-21.9 168.34,-25.4 168.34,-18.4"/>
<text text-anchor="middle" x="269.25" y="-28.7" font-family="Times,serif" font-size="14.00">Future fence, fence proxy, ...</text>
</g>
</g>
</svg>
